<svg viewBox="0 0 200 200" xmlns="http://www.w3.org/2000/svg">
  <!-- Gradient Definitions -->
  <defs>
    <linearGradient id="mainGradient" x1="0%" y1="0%" x2="100%" y2="100%">
      <stop offset="0%" style="stop-color:#f97316;stop-opacity:1" />
      <stop offset="100%" style="stop-color:#fb923c;stop-opacity:1" />
    </linearGradient>
    
    <linearGradient id="accentGradient" x1="0%" y1="0%" x2="100%" y2="100%">
      <stop offset="0%" style="stop-color:#0ea5e9;stop-opacity:1" />
      <stop offset="100%" style="stop-color:#06b6d4;stop-opacity:1" />
    </linearGradient>
    
    <filter id="glow">
      <feGaussianBlur stdDeviation="2" result="coloredBlur"/>
      <feMerge>
        <feMergeNode in="coloredBlur"/>
        <feMergeNode in="SourceGraphic"/>
      </feMerge>
    </filter>
  </defs>
  
  <!-- Background Circle -->
  <circle cx="100" cy="100" r="95" fill="url(#mainGradient)" opacity="0.1"/>
  
  <!-- Main Connection Hub (Center Node) -->
  <circle cx="100" cy="100" r="20" fill="url(#mainGradient)" filter="url(#glow)"/>
  
  <!-- Connection Lines -->
  <g stroke="url(#accentGradient)" stroke-width="3" stroke-linecap="round" opacity="0.6">
    <!-- Top connections -->
    <line x1="100" y1="100" x2="100" y2="40" />
    <line x1="100" y1="100" x2="145" y2="55" />
    <line x1="100" y1="100" x2="55" y2="55" />
    
    <!-- Bottom connections -->
    <line x1="100" y1="100" x2="100" y2="160" />
    <line x1="100" y1="100" x2="145" y2="145" />
    <line x1="100" y1="100" x2="55" y2="145" />
  </g>
  
  <!-- Connection Nodes -->
  <g fill="url(#accentGradient)">
    <circle cx="100" cy="40" r="8"/>
    <circle cx="145" cy="55" r="8"/>
    <circle cx="55" cy="55" r="8"/>
    <circle cx="100" cy="160" r="8"/>
    <circle cx="145" cy="145" r="8"/>
    <circle cx="55" cy="145" r="8"/>
  </g>
  
  <!-- Inner circles for depth -->
  <g fill="#ffffff">
    <circle cx="100" cy="40" r="4"/>
    <circle cx="145" cy="55" r="4"/>
    <circle cx="55" cy="55" r="4"/>
    <circle cx="100" cy="160" r="4"/>
    <circle cx="145" cy="145" r="4"/>
    <circle cx="55" cy="145" r="4"/>
  </g>
  
  <!-- Center highlight -->
  <circle cx="100" cy="100" r="12" fill="url(#mainGradient)"/>
  <circle cx="95" cy="95" r="4" fill="#ffffff" opacity="0.8"/>
</svg>